<mxfile host="app.diagrams.net" modified="2024-05-29T16:14:15.536Z" agent="Mozilla/5.0 (Macintosh; Intel Mac OS X 10_15_7) AppleWebKit/537.36 (KHTML, like Gecko) Chrome/125.0.0.0 Safari/537.36" version="24.4.2" etag="mUMb69LMY21fBFyIoijg" type="github">
  <diagram name="PÃ¡gina-1" id="g_CuxFxD6qwpsW24pDU-">
    <mxGraphModel>
      <root>
        <mxCell id="0" />
        <mxCell id="1" parent="0" />
      </root>
    </mxGraphModel>
  </diagram>
</mxfile>
